<svg xmlns="http://www.w3.org/2000/svg" version="1.1" xmlns:xlink="http://www.w3.org/1999/xlink" xmlns:svgjs="http://svgjs.dev/svgjs" width="2000" height="2231" viewBox="0 0 2000 2231"><g transform="matrix(1,0,0,1,1.381567211063384,-0.00018813346036949952)"><svg viewBox="0 0 251 280" data-background-color="#ffffff" preserveAspectRatio="xMidYMid meet" height="2231" width="2000" xmlns="http://www.w3.org/2000/svg" xmlns:xlink="http://www.w3.org/1999/xlink"><defs></defs><g id="tight-bounds" transform="matrix(1,0,0,1,-0.17338668498845777,0.000023611550375335355)"><svg viewBox="0 0 251.34677336997692 280" height="280" width="251.34677336997692"><g><svg viewBox="0 0 278.2696 309.99199613877727" height="280" width="251.34677336997692"><g><svg viewBox="0 0 278.2696 309.99199613877727" height="309.99199613877727" width="278.2696"><g><svg viewBox="0 0 278.2696 309.99199613877727" height="309.99199613877727" width="278.2696"><g><svg viewBox="0 0 278.2696 278.2696" height="278.2696" width="278.2696"><g transform="matrix(1,0,0,1,105.89424347020955,73.54602628064397)"><svg viewBox="0 0 66.48111305958092 131.17754743871208" height="131.17754743871208" width="66.48111305958092"><g><svg version="1.0" xmlns="http://www.w3.org/2000/svg" xmlns:xlink="http://www.w3.org/1999/xlink" x="0" y="0" viewBox="0 0 50.67974630301033 99.999" enable-background="new 0 0 50.679 100" xml:space="preserve" width="66.48111305958092" height="131.17754743871208" class="icon-yl-0" data-fill-palette-color="accent" id="yl-0"><path d="M49.862 12.723c-4.063-1.745-8.127-3.495-12.19-5.241-2.716-1.168-5.372-2.851-8.415-2.851-1.485 0-2.972 0-4.458 0-0.001 0-0.002 0-0.004 0-0.017-1.204-0.033-2.408-0.051-3.612C24.736 0.463 24.287 0 23.726 0c-2.125 0-4.251 0-6.375 0-0.562 0-1.011 0.463-1.02 1.019-0.017 1.204-0.034 2.408-0.051 3.612-0.001 0-0.002 0-0.003 0-4.895 0-9.79 0-14.685 0C0.724 4.631 0 5.296 0 6.092c0 5.262 0 10.524 0 15.786 0 0.797 0.724 1.462 1.591 1.462 4.79 0 9.579 0 14.368 0-0.077 4.418-0.155 9.313-0.232 13.216-0.236 11.878-0.472 23.756-0.708 35.634-0.164 8.236-0.327 16.474-0.491 24.71-0.008 0.385-0.016 0.77-0.023 1.154-0.021 1.062 0.9 1.945 1.945 1.945 1.665 0 2.423 0 4.088 0 1.664 0 2.423 0 4.088 0 1.044 0 1.966-0.884 1.944-1.945-0.007-0.385-0.015-0.77-0.022-1.154-0.164-8.236-0.328-16.474-0.491-24.71-0.236-11.878-0.472-23.756-0.708-35.634-0.078-3.903-0.154-8.798-0.232-13.216 1.38 0 2.76 0 4.141 0 2.822 0 5.165-1.457 7.698-2.544 4.303-1.849 8.604-3.698 12.907-5.547 0.654-0.281 0.87-0.775 0.806-1.263C50.732 13.498 50.517 13.004 49.862 12.723z" fill="#8d021f" data-fill-palette-color="accent"></path></svg></g></svg></g><path d="M29.845 107.853l-0.846 2.568-26.467-8.717 1.804-5.478c1.021-3.1 2.252-5.183 3.692-6.248v0c1.665-1.237 3.874-1.402 6.626-0.495v0c4.584 1.51 6.799 4.193 6.646 8.05v0c-0.044 1.243-0.303 2.585-0.777 4.024v0l-0.959 2.91zM6.36 97.092l-0.899 2.73 12.021 3.959 0.899-2.729c0.746-2.263 0.805-4.12 0.179-5.571-0.626-1.45-2.067-2.547-4.324-3.29-2.257-0.743-3.948-0.678-5.072 0.196-1.124 0.874-2.059 2.442-2.804 4.705zM25.403 56.525v0c4.579-6.352 10.702-6.764 18.37-1.236v0c3.509 2.529 5.627 5.43 6.353 8.703 0.732 3.276 0.113 6.282-1.858 9.016v0c-2.096 2.908-4.514 4.584-7.254 5.028v0c-3.23 0.486-6.751-0.645-10.563-3.393-3.807-2.744-6.089-5.771-6.846-9.082-0.757-3.311-0.158-6.322 1.798-9.036zM40.605 75.334v0c2.187-0.226 4.094-1.467 5.722-3.726v0c1.538-2.134 1.958-4.497 1.26-7.09-0.698-2.593-2.628-5.03-5.791-7.309-3.162-2.28-6.061-3.275-8.697-2.986v0c-2.22 0.226-4.138 1.46-5.755 3.702v0c-1.518 2.106-1.929 4.468-1.232 7.086 0.701 2.612 2.638 5.062 5.812 7.349 3.179 2.291 6.072 3.283 8.681 2.974zM64.868 21.312l18.223 16.75-7.461-23.71 2.178-1.408 8.278 27.832-2.043 1.321-17.925-16.657 7.364 23.485-2.077 1.343-21.109-19.534 2.102-1.36 18.032 16.731-7.438-23.581zM118.268 8.695l-1.366-4.873c-1.44-0.199-2.885-0.127-4.332 0.218v0c-2.916 0.694-5.015 2.326-6.298 4.896-1.282 2.57-1.432 5.919-0.449 10.049 0.983 4.13 2.612 6.796 4.888 7.997v0c1.569 0.855 3.5 1.01 5.792 0.464v0c1.474-0.351 2.915-0.869 4.324-1.554 1.4-0.69 2.336-1.256 2.807-1.697v0l0.988 1.772c-0.959 1.017-2.823 2.006-5.593 2.967v0c-0.8 0.3-1.658 0.559-2.573 0.778-0.916 0.218-2.029 0.325-3.341 0.321-1.311-0.004-2.604-0.331-3.877-0.981v0c-2.888-1.467-4.897-4.574-6.027-9.322-1.131-4.754-0.875-8.695 0.768-11.823 1.642-3.135 4.271-5.134 7.888-5.995v0c2.013-0.479 3.836-0.488 5.47-0.025v0c0.612 0.149 1.111 0.357 1.496 0.622v0l1.336 5.61zM153.53 0.04v0c7.806 0.619 11.335 5.64 10.587 15.062v0c-0.342 4.312-1.723 7.628-4.144 9.947-2.421 2.326-5.312 3.355-8.672 3.089v0c-3.573-0.283-6.261-1.481-8.062-3.592v0c-2.091-2.51-2.951-6.107-2.579-10.792 0.371-4.678 1.775-8.199 4.213-10.564 2.437-2.365 5.323-3.415 8.657-3.15zM145.337 22.793v0c1.327 1.753 3.379 2.739 6.153 2.959v0c2.622 0.208 4.86-0.659 6.715-2.601 1.855-1.942 2.936-4.856 3.245-8.742 0.308-3.886-0.345-6.881-1.959-8.985v0c-1.345-1.781-3.395-2.78-6.151-2.999v0c-2.589-0.205-4.821 0.669-6.696 2.623-1.869 1.954-2.958 4.881-3.268 8.781-0.31 3.906 0.344 6.894 1.961 8.964zM178.979 34.125c-0.422-0.149-0.683-0.382-0.783-0.701-0.1-0.318-0.071-0.701 0.086-1.148 0.16-0.453 0.408-0.776 0.745-0.969 0.335-0.186 0.738-0.196 1.21-0.03v0c0.8 0.282 1.019 0.936 0.657 1.962v0c-0.149 0.422-0.396 0.713-0.743 0.874-0.353 0.159-0.744 0.163-1.172 0.012zM195.535 41.539l14.852-23.578 6.066 3.821c4.711 2.967 6.541 6.881 5.491 11.742v0c-0.367 1.773-1.291 3.834-2.771 6.183-1.476 2.344-2.977 4.156-4.501 5.437-1.534 1.282-3.055 2.076-4.564 2.379-1.509 0.304-3.028 0.191-4.556-0.337-1.538-0.527-3.137-1.313-4.798-2.36v0zM215.115 23.53l-3.609-2.273-12.515 19.867 2.762 1.74c1.169 0.736 2.355 1.346 3.559 1.828v0c3.991 1.63 7.888-0.574 11.691-6.612v0c2.135-3.389 2.927-6.388 2.378-8.999v0c-0.512-2.231-1.934-4.082-4.266-5.551zM253.79 55.595l-1.934 1.425-7.625-8.721-7.877 6.888 7.079 8.095-1.934 1.424-6.947-7.944-7.696 6.729 8.285 9.475-1.933 1.425-9.933-11.36 20.977-18.343zM267.228 78.066l-19.047 18.333 26.111-2.396 1.051 2.371-29.476 2.266-1.063-2.398 21.328-20.648zM10.523 184.304l-0.853-2.587 26.616-8.777 1.819 5.515c1.029 3.119 1.277 5.536 0.746 7.251v0c-0.606 1.999-2.291 3.455-5.055 4.366v0c-4.609 1.52-8.005 0.675-10.187-2.535v0c-0.706-1.032-1.297-2.271-1.774-3.716v0l-0.966-2.929zM35.95 178.955l-0.903-2.739-12.086 3.986 0.903 2.739c0.753 2.282 1.812 3.82 3.177 4.614 1.374 0.798 3.195 0.823 5.465 0.074 2.27-0.748 3.599-1.812 3.987-3.191 0.391-1.373 0.21-3.201-0.543-5.483zM54.514 208.282v0c4.607 6.389 3.059 12.361-4.646 17.917v0c-3.53 2.546-6.974 3.647-10.332 3.304-3.358-0.343-6.03-1.89-8.013-4.64v0c-2.105-2.918-2.933-5.757-2.487-8.515v0c0.563-3.237 2.761-6.238 6.594-9.002 3.828-2.761 7.441-3.975 10.84-3.645 3.399 0.331 6.08 1.858 8.044 4.581zM31.743 216.815v0c-0.484 2.159 0.092 4.373 1.729 6.642v0c1.546 2.144 3.669 3.296 6.368 3.456 2.7 0.16 5.639-0.906 8.817-3.198 3.184-2.296 5.053-4.747 5.61-7.354v0c0.49-2.197-0.078-4.421-1.702-6.673v0c-1.527-2.117-3.649-3.257-6.367-3.42-2.718-0.163-5.672 0.905-8.861 3.205-3.194 2.304-5.059 4.751-5.594 7.342zM84.225 234.622l-7.829 23.635 18.662-16.638 2.187 1.413-22.104 19.087-2.052-1.326 7.866-23.324-18.489 16.463-2.086-1.347 9.184-27.432 2.12 1.369-7.898 23.447 18.554-16.564zM122.895 258.117l0.98-4.995c-1.202-0.834-2.53-1.424-3.984-1.77v0c-2.929-0.695-5.552-0.179-7.87 1.549-2.317 1.728-3.969 4.666-4.954 8.816-0.987 4.157-0.729 7.291 0.772 9.405v0c1.021 1.477 2.688 2.491 5 3.039v0c1.474 0.35 2.998 0.534 4.572 0.551 1.574 0.017 2.671-0.066 3.291-0.248v0l0.092 2.039c-1.322 0.482-3.446 0.527-6.371 0.134v0c-0.856-0.093-1.742-0.249-2.658-0.467-0.922-0.219-1.971-0.626-3.147-1.22-1.176-0.595-2.189-1.473-3.038-2.636v0c-1.929-2.626-2.326-6.329-1.191-11.109 1.133-4.774 3.147-8.196 6.04-10.267 2.893-2.071 6.155-2.676 9.785-1.814v0c2.026 0.481 3.671 1.297 4.935 2.448v0c0.478 0.415 0.832 0.829 1.064 1.24v0l-1.342 5.651zM150.756 249.954v0c7.852-0.626 12.155 3.795 12.911 13.264v0c0.346 4.338-0.499 7.855-2.534 10.548-2.035 2.694-4.743 4.175-8.124 4.445v0c-3.587 0.286-6.443-0.477-8.57-2.29v0c-2.476-2.16-3.902-5.595-4.277-10.306-0.375-4.704 0.46-8.424 2.506-11.159 2.045-2.735 4.742-4.235 8.088-4.502zM146.243 273.849v0c1.596 1.534 3.787 2.189 6.575 1.967v0c2.635-0.21 4.721-1.428 6.258-3.653 1.537-2.225 2.15-5.291 1.838-9.197-0.312-3.913-1.438-6.783-3.378-8.61v0c-1.624-1.558-3.82-2.227-6.589-2.006v0c-2.602 0.207-4.677 1.431-6.226 3.67-1.549 2.24-2.167 5.319-1.855 9.239 0.313 3.926 1.439 6.789 3.377 8.59zM185.975 271.423c-0.428 0.151-0.781 0.134-1.058-0.052-0.278-0.185-0.496-0.505-0.656-0.958-0.16-0.453-0.169-0.861-0.027-1.222 0.142-0.361 0.452-0.626 0.93-0.795v0c0.806-0.284 1.391 0.09 1.754 1.123v0c0.151 0.428 0.138 0.815-0.037 1.16-0.176 0.345-0.478 0.593-0.906 0.744zM206.288 261.487l-14.923-23.722 6.102-3.839c4.74-2.982 9.085-2.94 13.034 0.129v0c1.452 1.105 2.921 2.839 4.407 5.2 1.482 2.356 2.472 4.506 2.969 6.449 0.497 1.943 0.555 3.665 0.174 5.166-0.381 1.501-1.144 2.833-2.289 3.995-1.14 1.159-2.546 2.264-4.219 3.317v0zM198.47 235.897l-3.627 2.282 12.578 19.994 2.779-1.749c1.175-0.739 2.241-1.552 3.199-2.438v0c3.212-2.904 2.908-7.393-0.914-13.467v0c-2.147-3.413-4.523-5.435-7.129-6.067v0c-2.246-0.511-4.541-0.029-6.886 1.445zM227.027 206.787l1.676 1.734-7.673 8.76 7.924 6.94 7.119-8.127 1.668 1.727-6.986 7.977 7.743 6.782 8.332-9.513 1.676 1.734-9.995 11.411-21.083-18.466zM234.677 193.402l26.521 1.837-19.401-17.859 1.057-2.379 21.577 20.459-1.069 2.406-29.791-1.975zM3.555 142.873c0-5.913 4.793-10.706 10.706-10.705 5.913 0 10.706 4.793 10.706 10.705 0 5.913-4.793 10.706-10.706 10.706-5.913 0-10.706-4.793-10.706-10.706zM254.326 142.873c0-5.913 4.793-10.706 10.706-10.705 5.913 0 10.706 4.793 10.705 10.705 0 5.913-4.793 10.706-10.705 10.706-5.913 0-10.706-4.793-10.706-10.706z" fill="#ee3e38" data-fill-palette-color="primary"></path></svg></g><g transform="matrix(1,0,0,1,0,295.46666128000004)"><svg viewBox="0 0 278.2696 14.525334858777262" height="14.525334858777262" width="278.2696"><g transform="matrix(1,0,0,1,0,0)"><svg width="278.2696" viewBox="1.75 -35.75 699.18 36.5" height="14.525334858777262" data-palette-color="#8d021f"><path d="M14.75 0.75Q11.2 0.75 8.1-0.85L8.1-0.85Q6.7-1.55 5.75-2.5L5.75-2.5Q5.05-1.35 4-0.45L4-0.45Q3.1 0.2 3 0.25L3 0.25 1.75 0.25 1.75-9.25 3.75-9.25Q4.5-6.8 5.85-4.85L5.85-4.85Q8.9-0.5 13.75-0.5L13.75-0.5Q16.6-0.5 18.3-2.2 20-3.9 20-6.75L20-6.75Q20-8.4 19.03-9.7 18.05-11 16.6-12 15.15-13 12.55-14.5L12.55-14.5Q9.25-16.35 7.2-17.85 5.15-19.35 3.7-21.63 2.25-23.9 2.25-27L2.25-27Q2.25-29.45 3.63-31.43 5-33.4 7.75-34.58 10.5-35.75 14.5-35.75L14.5-35.75Q17.4-35.75 20.3-34.1L20.3-34.1Q21.4-33.5 22.5-32.5L22.5-32.5Q23.35-33.8 24.25-34.55L24.25-34.55Q25.15-35.2 25.25-35.25L25.25-35.25 26.5-35.25 26.5-25.75 24.5-25.75Q23.85-28.15 22.55-30.1L22.55-30.1Q21.35-32 19.58-33.25 17.8-34.5 15.5-34.5L15.5-34.5Q13.55-34.5 12.15-32.95 10.75-31.4 10.75-29L10.75-29Q10.75-27.15 11.83-25.68 12.9-24.2 14.48-23.1 16.05-22 18.75-20.45L18.75-20.45Q21.9-18.65 23.85-17.25 25.8-15.85 27.15-13.78 28.5-11.7 28.5-9L28.5-9Q28.5-6.3 26.95-4.08 25.4-1.85 22.3-0.55 19.2 0.75 14.75 0.75L14.75 0.75ZM45 0.75Q38.8 0.75 35.27-2.78 31.75-6.3 31.75-12.5L31.75-12.5Q31.75-18.7 35.27-22.23 38.8-25.75 45-25.75L45-25.75Q51.2-25.75 54.72-22.23 58.25-18.7 58.25-12.5L58.25-12.5Q58.25-6.3 54.72-2.78 51.2 0.75 45 0.75L45 0.75ZM45-0.25Q47-0.25 48.37-3.05 49.75-5.85 49.75-12.5L49.75-12.5Q49.75-19.15 48.37-21.95 47-24.75 45-24.75L45-24.75Q43-24.75 41.62-21.95 40.25-19.15 40.25-12.5L40.25-12.5Q40.25-5.85 41.62-3.05 43-0.25 45-0.25L45-0.25ZM75.75 0.75Q69.34 0.75 65.8-2.78 62.25-6.3 62.25-12.5L62.25-12.5Q62.25-18.7 65.8-22.23 69.34-25.75 75.75-25.75L75.75-25.75Q80.34-25.75 82.67-24.15 85-22.55 85-20.25L85-20.25Q85-18.55 83.97-17.53 82.95-16.5 81.25-16.5L81.25-16.5Q80.55-16.5 79.84-16.6L79.84-16.6 79.25-16.75 79.25-24.25 78.55-24.5Q77.8-24.75 76.75-24.75L76.75-24.75Q73.9-24.75 72.32-22.05 70.75-19.35 70.75-12.5L70.75-12.5Q70.75-5.85 72.32-3.18 73.9-0.5 76.75-0.5L76.75-0.5Q78.7-0.5 80.37-1.43 82.05-2.35 83.02-3.88 84-5.4 84-7L84-7 85.25-7Q85.25-5 84.05-3.2 82.84-1.4 80.7-0.33 78.55 0.75 75.75 0.75L75.75 0.75ZM88.74 0L88.74-0.75 91.74-1.5 91.74-23.5 88.74-24.25 88.74-25 95.24-25Q99.74-25 99.74-20.5L99.74-20.5 99.74-1.5 102.74-0.75 102.74 0 88.74 0ZM95.24-28Q93.74-28 92.74-29 91.74-30 91.74-31.5L91.74-31.5Q91.74-33 92.74-34 93.74-35 95.24-35L95.24-35Q96.74-35 97.74-34 98.74-33 98.74-31.5L98.74-31.5Q98.74-30 97.74-29 96.74-28 95.24-28L95.24-28ZM115.49 0.75Q111.04 0.75 108.64-1.15 106.24-3.05 106.24-6L106.24-6Q106.24-7.95 107.09-9.85L107.09-9.85Q107.44-10.75 107.99-11.5L107.99-11.5Q110.04-12 112.44-12.4L112.44-12.4Q117.84-13.3 121.99-13.5L121.99-13.5 121.99-15Q121.99-20.55 120.64-22.65 119.29-24.75 116.49-24.75L116.49-24.75Q115.44-24.75 114.69-24.5L114.69-24.5 113.99-24.25 113.99-16.75 113.34-16.6Q112.54-16.5 111.99-16.5L111.99-16.5Q110.29-16.5 109.27-17.53 108.24-18.55 108.24-20.25L108.24-20.25Q108.24-22.55 110.57-24.15 112.89-25.75 117.49-25.75L117.49-25.75Q121.39-25.75 124.22-24.38 127.04-23 128.52-20.58 129.99-18.15 129.99-15L129.99-15 129.99-1.5 132.99-0.75 132.99 0 128.49 0Q125.49 0 123.84-1.85L123.84-1.85Q123.14-2.6 122.74-3.75L122.74-3.75Q122.04-2.5 121.09-1.5L121.09-1.5Q118.84 0.75 115.49 0.75L115.49 0.75ZM117.49-1Q119.34-1 120.84-3L120.84-3Q121.39-3.75 121.99-5L121.99-5 121.99-12.25Q119.69-12.25 117.59-12L117.59-12Q116.04-11.8 115.49-11.75L115.49-11.75Q115.24-11.2 114.99-10.25L114.99-10.25Q114.49-8.35 114.49-6.5L114.49-6.5Q114.49-3.7 115.34-2.35 116.19-1 117.49-1L117.49-1ZM135.99 0L135.99-0.75 138.99-1.5 138.99-33.5 135.99-34.25 135.99-35 142.49-35Q146.99-35 146.99-30.5L146.99-30.5 146.99-1.5 149.99-0.75 149.99 0 135.99 0ZM152.99 0L152.99-0.75 155.99-1.5 155.99-23.5 152.99-24.25 152.99-25 159.49-25Q163.99-25 163.99-20.5L163.99-20.5 163.99-1.5 166.99-0.75 166.99 0 152.99 0ZM159.49-28Q157.99-28 156.99-29 155.99-30 155.99-31.5L155.99-31.5Q155.99-33 156.99-34 157.99-35 159.49-35L159.49-35Q160.99-35 161.99-34 162.99-33 162.99-31.5L162.99-31.5Q162.99-30 161.99-29 160.99-28 159.49-28L159.49-28ZM181.73 0.75Q178.63 0.75 176.18-0.6L176.18-0.6Q174.98-1.25 174.23-2L174.23-2Q173.43-0.9 172.48-0.3L172.48-0.3Q172.03 0 171.48 0.25L171.48 0.25 170.23 0.25 170.23-8.25 172.23-8.25Q172.88-6.15 174.13-4.35L174.13-4.35Q176.78-0.5 180.73-0.5L180.73-0.5Q182.83-0.5 183.91-1.53 184.98-2.55 184.98-4.5L184.98-4.5Q184.98-6.15 183.51-7.28 182.03-8.4 178.88-10.05L178.88-10.05Q176.18-11.4 174.51-12.48 172.83-13.55 171.66-15.18 170.48-16.8 170.48-19L170.48-19Q170.48-22 173.06-23.88 175.63-25.75 180.98-25.75L180.98-25.75Q183.63-25.75 185.88-24.35L185.88-24.35Q186.98-23.7 187.78-23L187.78-23Q188.43-23.9 189.53-24.7L189.53-24.7Q190.38-25.2 190.53-25.25L190.53-25.25 191.78-25.25 191.78-16.75 189.78-16.75Q189.03-18.9 187.93-20.6L187.93-20.6Q185.43-24.5 181.98-24.5L181.98-24.5Q180.63-24.5 179.68-23.5 178.73-22.5 178.73-21L178.73-21Q178.73-19.1 180.33-17.82 181.93-16.55 185.18-14.9L185.18-14.9Q187.83-13.55 189.41-12.53 190.98-11.5 192.11-10 193.23-8.5 193.23-6.5L193.23-6.5Q193.23 0.75 181.73 0.75L181.73 0.75ZM209.98 0.75Q206.68 0.75 204.26-0.45 201.83-1.65 200.53-3.75 199.23-5.85 199.23-8.5L199.23-8.5 199.23-23.75 195.73-23.75 195.73-25 199.23-25 199.23-27.5Q199.23-32 203.73-32L203.73-32 207.23-32 207.23-25 214.23-25 214.23-23.75 207.23-23.75 207.23-8.5Q207.23-3.9 208.18-2.2 209.13-0.5 210.98-0.5L210.98-0.5Q212.78-0.5 214.13-2.25 215.48-4 215.48-7L215.48-7 216.73-7Q216.73-3.3 214.88-1.28 213.03 0.75 209.98 0.75L209.98 0.75ZM246.73 0.5L233.23-33.75 230.48-34.25 230.48-35 236.48-35Q239.13-35 240.83-33.8 242.53-32.6 243.23-30.75L243.23-30.75 250.78-11.5 255.18-24.4 251.48-33.75 248.73-34.25 248.73-35 254.73-35Q257.38-35 259.03-33.83 260.68-32.65 261.48-30.75L261.48-30.75 269.03-11.5 276.23-32.75 272.48-34.25 272.48-35 281.73-35 281.73-34.25 277.73-32.75 266.48 0.5 264.98 0.5 255.98-22.35 248.23 0.5 246.73 0.5ZM293.47 0.75Q287.27 0.75 283.75-2.78 280.22-6.3 280.22-12.5L280.22-12.5Q280.22-18.7 283.75-22.23 287.27-25.75 293.47-25.75L293.47-25.75Q299.67-25.75 303.2-22.23 306.72-18.7 306.72-12.5L306.72-12.5Q306.72-6.3 303.2-2.78 299.67 0.75 293.47 0.75L293.47 0.75ZM293.47-0.25Q295.47-0.25 296.85-3.05 298.22-5.85 298.22-12.5L298.22-12.5Q298.22-19.15 296.85-21.95 295.47-24.75 293.47-24.75L293.47-24.75Q291.47-24.75 290.1-21.95 288.72-19.15 288.72-12.5L288.72-12.5Q288.72-5.85 290.1-3.05 291.47-0.25 293.47-0.25L293.47-0.25ZM310.72 0L310.72-0.75 313.72-1.5 313.72-23.5 310.72-24.25 310.72-25 315.22-25Q318.17-25 319.87-23.1L319.87-23.1Q320.52-22.35 320.97-21.25L320.97-21.25Q321.72-22.35 322.82-23.25L322.82-23.25Q325.32-25.25 328.42-25.25L328.42-25.25Q331.07-25.25 332.4-24.03 333.72-22.8 333.72-20.5L333.72-20.5Q333.72-18.8 332.7-17.78 331.67-16.75 329.97-16.75L329.97-16.75Q329.27-16.75 328.57-16.85L328.57-16.85 327.97-17 327.97-24Q325.42-24 323.32-22L323.32-22Q322.32-21 321.72-20L321.72-20 321.72-1.5 324.72-0.75 324.72 0 310.72 0ZM335.97 0L335.97-0.75 338.97-1.5 338.97-33.5 335.97-34.25 335.97-35 342.47-35Q346.97-35 346.97-30.5L346.97-30.5 346.97-13 356.22-22.75 352.47-24.25 352.47-25 361.97-25 361.97-24.25 357.97-22.75 352.22-16.75 361.97-1.5 364.47-0.75 364.47 0 357.97 0Q355.57 0 354.07-1.05 352.57-2.1 351.22-4.25L351.22-4.25 346.97-11 346.97-1.5 349.97-0.75 349.97 0 335.97 0ZM378.47 0.75Q372.07 0.75 368.52-2.78 364.97-6.3 364.97-12.5L364.97-12.5Q364.97-16.55 366.52-19.55 368.07-22.55 370.84-24.15 373.62-25.75 377.22-25.75L377.22-25.75Q380.82-25.75 383.54-24.4 386.27-23.05 387.74-20.78 389.22-18.5 389.22-15.75L389.22-15.75Q389.22-14.5 388.97-13.6L388.97-13.6 388.72-12.75Q386.57-12.3 384.07-12L384.07-12Q378.82-11.25 373.47-11.25L373.47-11.25Q373.47-5.45 375.07-2.98 376.67-0.5 379.47-0.5L379.47-0.5Q381.42-0.5 383.09-1.43 384.77-2.35 385.74-3.88 386.72-5.4 386.72-7L386.72-7 387.97-7Q387.97-5 386.77-3.2 385.57-1.4 383.42-0.33 381.27 0.75 378.47 0.75L378.47 0.75ZM373.47-12.5Q376.67-12.5 378.67-12.75L378.67-12.75Q379.52-12.8 380.47-13L380.47-13Q380.52-13.25 380.72-14.1L380.72-14.1Q380.97-15.35 380.97-16.75L380.97-16.75Q380.97-20.9 379.87-22.83 378.77-24.75 377.22-24.75L377.22-24.75Q373.47-24.75 373.47-12.5L373.47-12.5ZM392.96 0L392.96-0.75 395.96-1.5 395.96-23.5 392.96-24.25 392.96-25 397.46-25Q400.41-25 402.11-23.1L402.11-23.1Q402.76-22.35 403.21-21.25L403.21-21.25Q403.96-22.35 405.06-23.25L405.06-23.25Q407.56-25.25 410.66-25.25L410.66-25.25Q413.31-25.25 414.64-24.03 415.96-22.8 415.96-20.5L415.96-20.5Q415.96-18.8 414.94-17.78 413.91-16.75 412.21-16.75L412.21-16.75Q411.51-16.75 410.81-16.85L410.81-16.85 410.21-17 410.21-24Q407.66-24 405.56-22L405.56-22Q404.56-21 403.96-20L403.96-20 403.96-1.5 406.96-0.75 406.96 0 392.96 0ZM430.46 0.75Q427.36 0.75 424.91-0.6L424.91-0.6Q423.71-1.25 422.96-2L422.96-2Q422.16-0.9 421.21-0.3L421.21-0.3Q420.76 0 420.21 0.25L420.21 0.25 418.96 0.25 418.96-8.25 420.96-8.25Q421.61-6.15 422.86-4.35L422.86-4.35Q425.51-0.5 429.46-0.5L429.46-0.5Q431.56-0.5 432.64-1.53 433.71-2.55 433.71-4.5L433.71-4.5Q433.71-6.15 432.24-7.28 430.76-8.4 427.61-10.05L427.61-10.05Q424.91-11.4 423.24-12.48 421.56-13.55 420.39-15.18 419.21-16.8 419.21-19L419.21-19Q419.21-22 421.79-23.88 424.36-25.75 429.71-25.75L429.71-25.75Q432.36-25.75 434.61-24.35L434.61-24.35Q435.71-23.7 436.51-23L436.51-23Q437.16-23.9 438.26-24.7L438.26-24.7Q439.11-25.2 439.26-25.25L439.26-25.25 440.51-25.25 440.51-16.75 438.51-16.75Q437.76-18.9 436.66-20.6L436.66-20.6Q434.16-24.5 430.71-24.5L430.71-24.5Q429.36-24.5 428.41-23.5 427.46-22.5 427.46-21L427.46-21Q427.46-19.1 429.06-17.82 430.66-16.55 433.91-14.9L433.91-14.9Q436.56-13.55 438.14-12.53 439.71-11.5 440.84-10 441.96-8.5 441.96-6.5L441.96-6.5Q441.96 0.75 430.46 0.75L430.46 0.75ZM476.96 0.75Q468.96 0.75 464.46-4 459.96-8.75 459.96-17.5L459.96-17.5Q459.96-23.25 461.93-27.38 463.91-31.5 467.48-33.63 471.06-35.75 475.76-35.75L475.76-35.75Q478.61-35.75 481.51-34.1L481.51-34.1Q482.61-33.5 483.71-32.5L483.71-32.5Q484.56-33.8 485.46-34.55L485.46-34.55Q486.36-35.2 486.46-35.25L486.46-35.25 487.71-35.25 487.71-25.75 485.71-25.75Q485.06-28.15 483.76-30.1L483.76-30.1Q482.56-32 480.78-33.25 479.01-34.5 476.71-34.5L476.71-34.5Q473.26-34.5 470.98-30.5 468.71-26.5 468.71-17.5L468.71-17.5Q468.71-8.35 471.18-4.42 473.66-0.5 477.96-0.5L477.96-0.5Q480.31-0.5 482.43-1.83 484.56-3.15 485.88-5.35 487.21-7.55 487.21-10L487.21-10 488.46-10Q488.46-7.15 486.93-4.67 485.41-2.2 482.78-0.73 480.16 0.75 476.96 0.75L476.96 0.75ZM504.95 0.75Q498.75 0.75 495.23-2.78 491.7-6.3 491.7-12.5L491.7-12.5Q491.7-18.7 495.23-22.23 498.75-25.75 504.95-25.75L504.95-25.75Q511.15-25.75 514.68-22.23 518.2-18.7 518.2-12.5L518.2-12.5Q518.2-6.3 514.68-2.78 511.15 0.75 504.95 0.75L504.95 0.75ZM504.95-0.25Q506.95-0.25 508.33-3.05 509.7-5.85 509.7-12.5L509.7-12.5Q509.7-19.15 508.33-21.95 506.95-24.75 504.95-24.75L504.95-24.75Q502.95-24.75 501.58-21.95 500.2-19.15 500.2-12.5L500.2-12.5Q500.2-5.85 501.58-3.05 502.95-0.25 504.95-0.25L504.95-0.25ZM522.2 0L522.2-0.75 525.2-1.5 525.2-33.5 522.2-34.25 522.2-35 528.7-35Q533.2-35 533.2-30.5L533.2-30.5 533.2-1.5 536.2-0.75 536.2 0 522.2 0ZM539.2 0L539.2-0.75 542.2-1.5 542.2-33.5 539.2-34.25 539.2-35 545.7-35Q550.2-35 550.2-30.5L550.2-30.5 550.2-1.5 553.2-0.75 553.2 0 539.2 0ZM569.69 0.75Q563.29 0.75 559.74-2.78 556.19-6.3 556.19-12.5L556.19-12.5Q556.19-16.55 557.74-19.55 559.29-22.55 562.07-24.15 564.84-25.75 568.44-25.75L568.44-25.75Q572.04-25.75 574.77-24.4 577.49-23.05 578.97-20.78 580.44-18.5 580.44-15.75L580.44-15.75Q580.44-14.5 580.19-13.6L580.19-13.6 579.94-12.75Q577.79-12.3 575.29-12L575.29-12Q570.04-11.25 564.69-11.25L564.69-11.25Q564.69-5.45 566.29-2.98 567.89-0.5 570.69-0.5L570.69-0.5Q572.64-0.5 574.32-1.43 575.99-2.35 576.97-3.88 577.94-5.4 577.94-7L577.94-7 579.19-7Q579.19-5 577.99-3.2 576.79-1.4 574.64-0.33 572.49 0.75 569.69 0.75L569.69 0.75ZM564.69-12.5Q567.89-12.5 569.89-12.75L569.89-12.75Q570.74-12.8 571.69-13L571.69-13Q571.74-13.25 571.94-14.1L571.94-14.1Q572.19-15.35 572.19-16.75L572.19-16.75Q572.19-20.9 571.09-22.83 569.99-24.75 568.44-24.75L568.44-24.75Q564.69-24.75 564.69-12.5L564.69-12.5ZM597.69 0.75Q591.29 0.75 587.74-2.78 584.19-6.3 584.19-12.5L584.19-12.5Q584.19-18.7 587.74-22.23 591.29-25.75 597.69-25.75L597.69-25.75Q602.29-25.75 604.62-24.15 606.94-22.55 606.94-20.25L606.94-20.25Q606.94-18.55 605.92-17.53 604.89-16.5 603.19-16.5L603.19-16.5Q602.49-16.5 601.79-16.6L601.79-16.6 601.19-16.75 601.19-24.25 600.49-24.5Q599.74-24.75 598.69-24.75L598.69-24.75Q595.84-24.75 594.27-22.05 592.69-19.35 592.69-12.5L592.69-12.5Q592.69-5.85 594.27-3.18 595.84-0.5 598.69-0.5L598.69-0.5Q600.64-0.5 602.32-1.43 603.99-2.35 604.97-3.88 605.94-5.4 605.94-7L605.94-7 607.19-7Q607.19-5 605.99-3.2 604.79-1.4 602.64-0.33 600.49 0.75 597.69 0.75L597.69 0.75ZM623.69 0.75Q620.39 0.75 617.96-0.45 615.54-1.65 614.24-3.75 612.94-5.85 612.94-8.5L612.94-8.5 612.94-23.75 609.44-23.75 609.44-25 612.94-25 612.94-27.5Q612.94-32 617.44-32L617.44-32 620.94-32 620.94-25 627.94-25 627.94-23.75 620.94-23.75 620.94-8.5Q620.94-3.9 621.89-2.2 622.84-0.5 624.69-0.5L624.69-0.5Q626.49-0.5 627.84-2.25 629.19-4 629.19-7L629.19-7 630.44-7Q630.44-3.3 628.59-1.28 626.74 0.75 623.69 0.75L623.69 0.75ZM633.19 0L633.19-0.75 636.19-1.5 636.19-23.5 633.19-24.25 633.19-25 639.69-25Q644.19-25 644.19-20.5L644.19-20.5 644.19-1.5 647.19-0.75 647.19 0 633.19 0ZM639.69-28Q638.19-28 637.19-29 636.19-30 636.19-31.5L636.19-31.5Q636.19-33 637.19-34 638.19-35 639.69-35L639.69-35Q641.19-35 642.19-34 643.19-33 643.19-31.5L643.19-31.5Q643.19-30 642.19-29 641.19-28 639.69-28L639.69-28ZM661.68 0.5L649.18-23.5 646.68-24.25 646.68-25 652.93-25Q655.53-25 657.06-23.93 658.58-22.85 659.68-20.75L659.68-20.75 665.63-9.2 671.18-22.75 667.43-24.25 667.43-25 676.68-25 676.68-24.25 672.68-22.75 663.18 0.5 661.68 0.5ZM690.18 0.75Q683.78 0.75 680.23-2.78 676.68-6.3 676.68-12.5L676.68-12.5Q676.68-16.55 678.23-19.55 679.78-22.55 682.56-24.15 685.33-25.75 688.93-25.75L688.93-25.75Q692.53-25.75 695.26-24.4 697.98-23.05 699.46-20.78 700.93-18.5 700.93-15.75L700.93-15.75Q700.93-14.5 700.68-13.6L700.68-13.6 700.43-12.75Q698.28-12.3 695.78-12L695.78-12Q690.53-11.25 685.18-11.25L685.18-11.25Q685.18-5.45 686.78-2.98 688.38-0.5 691.18-0.5L691.18-0.5Q693.13-0.5 694.81-1.43 696.48-2.35 697.46-3.88 698.43-5.4 698.43-7L698.43-7 699.68-7Q699.68-5 698.48-3.2 697.28-1.4 695.13-0.33 692.98 0.75 690.18 0.75L690.18 0.75ZM685.18-12.5Q688.38-12.5 690.38-12.75L690.38-12.75Q691.23-12.8 692.18-13L692.18-13Q692.23-13.25 692.43-14.1L692.43-14.1Q692.68-15.35 692.68-16.75L692.68-16.75Q692.68-20.9 691.58-22.83 690.48-24.75 688.93-24.75L688.93-24.75Q685.18-24.75 685.18-12.5L685.18-12.5Z" opacity="1" transform="matrix(1,0,0,1,0,0)" fill="#8d021f" class="undefined-text-1" data-fill-palette-color="secondary" id="text-1"></path></svg></g></svg></g></svg></g></svg></g></svg></g></svg><rect width="251.34677336997692" height="280" fill="none" stroke="none" visibility="hidden"></rect></g></svg></g></svg>